<svg width="200" height="23" viewBox="0 0 200 23" fill="none" xmlns="http://www.w3.org/2000/svg">
<path d="M9.39 22.36C7.73 22.36 6.12 22.14 4.56 21.7C3.02 21.24 1.78 20.65 0.84 19.93L2.49 16.27C3.39 16.93 4.46 17.46 5.7 17.86C6.94 18.26 8.18 18.46 9.42 18.46C10.8 18.46 11.82 18.26 12.48 17.86C13.14 17.44 13.47 16.89 13.47 16.21C13.47 15.71 13.27 15.3 12.87 14.98C12.49 14.64 11.99 14.37 11.37 14.17C10.77 13.97 9.95 13.75 8.91 13.51C7.31 13.13 6 12.75 4.98 12.37C3.96 11.99 3.08 11.38 2.34 10.54C1.62 9.7 1.26 8.58 1.26 7.18C1.26 5.96 1.59 4.86 2.25 3.88C2.91 2.88 3.9 2.09 5.22 1.51C6.56 0.929999 8.19 0.64 10.11 0.64C11.45 0.64 12.76 0.799999 14.04 1.12C15.32 1.44 16.44 1.9 17.4 2.5L15.9 6.19C13.96 5.09 12.02 4.54 10.08 4.54C8.72 4.54 7.71 4.76 7.05 5.2C6.41 5.64 6.09 6.22 6.09 6.94C6.09 7.66 6.46 8.2 7.2 8.56C7.96 8.9 9.11 9.24 10.65 9.58C12.25 9.96 13.56 10.34 14.58 10.72C15.6 11.1 16.47 11.7 17.19 12.52C17.93 13.34 18.3 14.45 18.3 15.85C18.3 17.05 17.96 18.15 17.28 19.15C16.62 20.13 15.62 20.91 14.28 21.49C12.94 22.07 11.31 22.36 9.39 22.36ZM31.7909 22.36C29.6109 22.36 27.6409 21.89 25.8809 20.95C24.1409 20.01 22.7709 18.72 21.7709 17.08C20.7909 15.42 20.3009 13.56 20.3009 11.5C20.3009 9.44 20.7909 7.59 21.7709 5.95C22.7709 4.29 24.1409 2.99 25.8809 2.05C27.6409 1.11 29.6109 0.64 31.7909 0.64C33.9709 0.64 35.9309 1.11 37.6709 2.05C39.4109 2.99 40.7809 4.29 41.7809 5.95C42.7809 7.59 43.2809 9.44 43.2809 11.5C43.2809 13.56 42.7809 15.42 41.7809 17.08C40.7809 18.72 39.4109 20.01 37.6709 20.95C35.9309 21.89 33.9709 22.36 31.7909 22.36ZM31.7909 18.22C33.0309 18.22 34.1509 17.94 35.1509 17.38C36.1509 16.8 36.9309 16 37.4909 14.98C38.0709 13.96 38.3609 12.8 38.3609 11.5C38.3609 10.2 38.0709 9.04 37.4909 8.02C36.9309 7 36.1509 6.21 35.1509 5.65C34.1509 5.07 33.0309 4.78 31.7909 4.78C30.5509 4.78 29.4309 5.07 28.4309 5.65C27.4309 6.21 26.6409 7 26.0609 8.02C25.5009 9.04 25.2209 10.2 25.2209 11.5C25.2209 12.8 25.5009 13.96 26.0609 14.98C26.6409 16 27.4309 16.8 28.4309 17.38C29.4309 17.94 30.5509 18.22 31.7909 18.22ZM51.7934 4.9V10.45H61.5134V14.35H51.7934V22H46.9334V0.999999H62.8034V4.9H51.7934ZM70.59 4.96H63.87V0.999999H82.17V4.96H75.45V22H70.59V4.96ZM104.045 0.999999V22H100.055L89.5849 9.25V22H84.7849V0.999999H88.8049L99.2449 13.75V0.999999H104.045ZM109.013 0.999999H113.873V22H109.013V0.999999ZM123.207 4.96H116.487V0.999999H134.787V4.96H128.067V22H123.207V4.96ZM146.381 22.36C143.381 22.36 141.041 21.53 139.361 19.87C137.701 18.21 136.871 15.84 136.871 12.76V0.999999H141.731V12.58C141.731 16.34 143.291 18.22 146.411 18.22C147.931 18.22 149.091 17.77 149.891 16.87C150.691 15.95 151.091 14.52 151.091 12.58V0.999999H155.891V12.76C155.891 15.84 155.051 18.21 153.371 19.87C151.711 21.53 149.381 22.36 146.381 22.36ZM174.073 22L170.023 16.15H169.783H165.553V22H160.693V0.999999H169.783C171.643 0.999999 173.253 1.31 174.613 1.93C175.993 2.55 177.053 3.43 177.793 4.57C178.533 5.71 178.903 7.06 178.903 8.62C178.903 10.18 178.523 11.53 177.763 12.67C177.023 13.79 175.963 14.65 174.583 15.25L179.293 22H174.073ZM173.983 8.62C173.983 7.44 173.603 6.54 172.843 5.92C172.083 5.28 170.973 4.96 169.513 4.96H165.553V12.28H169.513C170.973 12.28 172.083 11.96 172.843 11.32C173.603 10.68 173.983 9.78 173.983 8.62ZM199.014 18.1V22H182.754V0.999999H198.624V4.9H187.584V9.46H197.334V13.24H187.584V18.1H199.014Z" fill="white"/>
</svg>
