<svg width="32" height="32" viewBox="0 0 32 32" fill="none" xmlns="http://www.w3.org/2000/svg">
<path fill-rule="evenodd" clip-rule="evenodd" d="M16 32C24.8366 32 32 24.8366 32 16C32 7.16344 24.8366 0 16 0C7.16344 0 0 7.16344 0 16C0 24.8366 7.16344 32 16 32ZM13.0669 23.3334C13.456 23.3334 13.6338 23.1603 13.8488 22.951L13.8669 22.9334L15.7888 21.0646L19.7864 24.0181C20.5222 24.424 21.0533 24.2138 21.2366 23.3349L23.8612 10.9665C24.1299 9.88914 23.4505 9.4005 22.7466 9.72007L7.33462 15.6629C6.28261 16.0848 6.28874 16.6718 7.14286 16.9333L11.0979 18.1677L20.2543 12.3911C20.6866 12.1289 21.0833 12.2699 20.7577 12.5588L13.3384 19.2542L13.3391 19.2547L13.0669 23.3334Z" fill="#7D7D7D"/>
</svg>
