<svg width="105" height="105" viewBox="0 0 105 105" fill="none" xmlns="http://www.w3.org/2000/svg">
<g clip-path="url(#clip0)">
<path d="M86.2418 60.3628C82.2766 60.3628 79.0505 57.1369 79.0505 53.1715C79.0505 49.2061 82.2764 45.98 86.2418 45.98C90.2072 45.98 93.4331 49.2059 93.4331 53.1715C93.4331 57.1369 90.207 60.3628 86.2418 60.3628Z" fill="#FF4F4F"/>
<path d="M72.2374 80.0054C68.272 80.0054 65.0459 76.7796 65.0459 72.8142C65.0459 68.8488 68.2718 65.6227 72.2374 65.6227C76.2026 65.6227 79.4287 68.8486 79.4287 72.8142C79.4285 76.7794 76.2026 80.0054 72.2374 80.0054Z" fill="#FF6BA6"/>
<path d="M47.1986 80.6121C43.2332 80.6121 40.0071 77.3862 40.0071 73.4208C40.0071 69.4554 43.233 66.2295 47.1986 66.2295C51.1638 66.2295 54.3899 69.4554 54.3899 73.4208C54.3899 77.3862 51.1636 80.6121 47.1986 80.6121Z" fill="#FBC640"/>
<path d="M26.7079 64.9932C22.7427 64.9932 19.5166 61.7673 19.5166 57.8019C19.5166 53.8365 22.7425 50.6106 26.7079 50.6106C30.6733 50.6106 33.8992 53.8365 33.8992 57.8019C33.8992 61.7673 30.6731 64.9932 26.7079 64.9932Z" fill="#30C9B0"/>
<path d="M22.1764 40.9304C18.211 40.9304 14.9849 37.7045 14.9849 33.7391C14.9849 29.7737 18.2107 26.5479 22.1764 26.5479C26.1415 26.5479 29.3676 29.7737 29.3676 33.7391C29.3676 37.7045 26.1413 40.9304 22.1764 40.9304Z" fill="#6FD2F7"/>
<path d="M57.4319 91.795C44.4814 91.7952 32.0143 87.8977 22.3276 80.8209C9.18969 71.2222 1.2835 55.739 1.69448 40.4132C1.92396 31.8951 4.73251 24.4239 9.60353 19.3759C13.3887 15.4529 18.8563 13.203 24.6046 13.203C26.7001 13.203 28.7677 13.501 30.7502 14.0889C36.4672 15.7854 38.681 19.1802 40.8218 22.4631C42.6989 25.3418 44.4722 28.0609 48.5008 29.7065C49.2918 30.0293 50.2271 30.1864 51.3612 30.1864C54.1222 30.1866 57.5464 29.2637 61.511 28.1951C66.39 26.8799 71.9199 25.3894 77.4248 25.3894C84.0384 25.3894 89.393 27.5552 93.7944 32.0108C98.9083 37.1878 102.209 44.2402 103.089 51.8685C103.976 59.5667 102.298 67.1243 98.3644 73.1489C92.2826 82.4627 80.8827 88.9959 67.0877 91.0732C63.9085 91.5522 60.6595 91.795 57.4319 91.795ZM47.1987 67.0693C43.6964 67.0693 40.8468 69.9185 40.8468 73.421C40.8468 76.9236 43.6962 79.7725 47.1987 79.7725C50.7013 79.7725 53.5502 76.9234 53.5502 73.421C53.5502 69.9187 50.7009 67.0693 47.1987 67.0693ZM72.2376 66.4627C68.7353 66.4627 65.8857 69.3121 65.8857 72.8146C65.8857 76.3172 68.7351 79.1661 72.2376 79.1661C75.7401 79.1661 78.5891 76.3169 78.5891 72.8146C78.5891 69.3123 75.7399 66.4627 72.2376 66.4627ZM26.7079 51.4506C23.2056 51.4506 20.3562 54.2997 20.3562 57.802C20.3562 61.3044 23.2054 64.1535 26.7079 64.1535C30.2104 64.1535 33.0594 61.3044 33.0594 57.802C33.0594 54.2997 30.2104 51.4506 26.7079 51.4506ZM86.242 46.8199C82.7397 46.8199 79.8905 49.6692 79.8905 53.1718C79.8905 56.6741 82.7397 59.5235 86.242 59.5235C89.7443 59.5235 92.5937 56.6743 92.5937 53.172C92.5937 49.6697 89.7443 46.8199 86.242 46.8199ZM22.1765 27.3877C18.6742 27.3877 15.8246 30.2368 15.8246 33.7392C15.8246 37.2415 18.674 40.0906 22.1765 40.0906C25.679 40.0906 28.528 37.2415 28.528 33.7392C28.528 30.2368 25.6786 27.3877 22.1765 27.3877Z" fill="#88BBE6"/>
<path d="M99.7707 74.0667C103.919 67.7144 105.69 59.7629 104.757 51.6759C103.835 43.6764 100.366 36.273 94.9895 30.83C84.5365 20.2492 70.9757 23.9045 61.0743 26.5734C56.1786 27.8929 51.5541 29.1398 49.1362 28.1519C45.5927 26.7045 44.0337 24.3141 42.2288 21.5457C40.0297 18.1734 37.537 14.351 31.228 12.4786C23.0548 10.0558 14.0922 12.3053 8.39534 18.2099C3.23208 23.5604 0.256596 31.4295 0.0158342 40.3682C-0.409499 56.2374 7.76042 72.2573 21.3366 82.1766C31.4232 89.5453 44.1662 93.4819 57.3683 93.4819C60.674 93.4819 64.0094 93.2348 67.3382 92.7334C73.9214 91.7421 80.22 89.6905 85.5525 86.8003C91.6152 83.5149 96.3988 79.2306 99.7707 74.0667ZM66.7127 88.582C51.1741 90.9232 35.5385 87.3532 23.8129 78.7868C11.3339 69.6692 3.82332 54.9914 4.21195 40.4808C4.42441 32.5929 6.98256 25.7189 11.4157 21.1247C14.7948 17.6228 19.6092 15.7117 24.5674 15.7117C26.3912 15.7117 28.2351 15.9703 30.0334 16.5035C34.863 17.9368 36.6466 20.6717 38.7117 23.8389C40.6238 26.7717 42.7915 30.0955 47.5483 32.0382C51.2787 33.5617 56.3242 32.2012 62.1665 30.6266C72.0575 27.9604 83.2683 24.939 92.0028 33.7801C101.814 43.7118 103.682 60.3995 96.2557 71.7711C90.5664 80.4845 79.7984 86.612 66.7127 88.582Z" fill="#181818"/>
<path d="M64.3503 38.7336C68.7819 37.5392 73.3646 36.304 77.4253 36.304C78.5844 36.304 79.5243 35.3642 79.5243 34.2051C79.5243 33.046 78.5844 32.1061 77.4253 32.1061C72.8088 32.1061 67.9534 33.4149 63.2579 34.6804C62.1388 34.9823 61.4757 36.134 61.7774 37.2533C62.0297 38.1897 62.8771 38.8066 63.8028 38.8066C63.9837 38.8068 64.1674 38.783 64.3503 38.7336Z" fill="#181818"/>
<path d="M31.0463 33.7391C31.0463 28.848 27.067 24.8687 22.1758 24.8687C17.2845 24.8687 13.3052 28.848 13.3052 33.7391C13.3052 38.6302 17.2845 42.6096 22.1758 42.6096C27.067 42.6096 31.0463 38.6302 31.0463 33.7391ZM17.5035 33.7391C17.5035 31.1627 19.5997 29.0668 22.1761 29.0668C24.7525 29.0668 26.8484 31.1627 26.8484 33.7391C26.8484 36.3155 24.7525 38.4114 22.1761 38.4114C19.5997 38.4114 17.5035 36.3157 17.5035 33.7391Z" fill="black"/>
<path d="M26.7079 48.9316C21.8167 48.9316 17.8374 52.911 17.8374 57.8021C17.8374 62.6932 21.8167 66.6726 26.7079 66.6726C31.599 66.6726 35.5783 62.6932 35.5783 57.8021C35.5783 52.911 31.599 48.9316 26.7079 48.9316ZM26.7079 62.4744C24.1315 62.4744 22.0356 60.3785 22.0356 57.8021C22.0356 55.2257 24.1315 53.1298 26.7079 53.1298C29.2845 53.1298 31.3802 55.2257 31.3802 57.8021C31.3802 60.3785 29.2845 62.4744 26.7079 62.4744Z" fill="black"/>
<path d="M47.1986 64.5503C42.3072 64.5503 38.3279 68.5296 38.3279 73.4208C38.3279 78.3119 42.3072 82.2912 47.1986 82.2912C52.0897 82.2912 56.069 78.3119 56.069 73.4208C56.0688 68.5296 52.0893 64.5503 47.1986 64.5503ZM47.1986 78.0933C44.6222 78.0933 42.526 75.9974 42.526 73.421C42.526 70.8444 44.6222 68.7487 47.1986 68.7487C49.775 68.7487 51.8709 70.8446 51.8709 73.421C51.8709 75.9974 49.7748 78.0933 47.1986 78.0933Z" fill="black"/>
<path d="M72.2374 63.9438C67.346 63.9438 63.3667 67.9232 63.3667 72.8145C63.3667 77.7056 67.346 81.685 72.2374 81.685C77.1285 81.685 81.1078 77.7056 81.1078 72.8145C81.1076 67.923 77.1283 63.9438 72.2374 63.9438ZM72.2374 77.4866C69.661 77.4866 67.5649 75.3907 67.5649 72.8143C67.5649 70.2377 69.661 68.1418 72.2374 68.1418C74.814 68.1418 76.9097 70.2379 76.9097 72.8143C76.9099 75.3907 74.8138 77.4866 72.2374 77.4866Z" fill="black"/>
<path d="M86.2418 44.301C81.3507 44.301 77.3713 48.2804 77.3713 53.1717C77.3713 58.0628 81.3507 62.0421 86.2418 62.0421C91.1329 62.0421 95.1123 58.0628 95.1123 53.1717C95.1123 48.2804 91.1329 44.301 86.2418 44.301ZM86.2418 57.844C83.6654 57.844 81.5695 55.7481 81.5695 53.1717C81.5695 50.5953 83.6654 48.4992 86.2418 48.4992C88.8184 48.4992 90.9141 50.5953 90.9141 53.1717C90.9141 55.7481 88.8184 57.844 86.2418 57.844Z" fill="black"/>
<path d="M57.6179 35.9977C54.9166 35.9977 54.9123 40.1956 57.6179 40.1956C60.319 40.1956 60.3237 35.9977 57.6179 35.9977Z" fill="#181818"/>
</g>
<defs>
<clipPath id="clip0">
<rect width="105" height="105" fill="white"/>
</clipPath>
</defs>
</svg>
