<svg width="32" height="32" viewBox="0 0 32 32" fill="none" xmlns="http://www.w3.org/2000/svg">
<path fill-rule="evenodd" clip-rule="evenodd" d="M16 0C7.16344 0 0 7.16344 0 16C0 24.8366 7.16344 32 16 32C24.8366 32 32 24.8366 32 16C32 7.16344 24.8366 0 16 0ZM12.4823 7.51835C13.3925 7.47693 13.6834 7.4668 16.0009 7.4668H15.9983C18.3165 7.4668 18.6063 7.47693 19.5165 7.51835C20.425 7.55995 21.0454 7.70378 21.5894 7.9148C22.1512 8.13258 22.6259 8.42414 23.1006 8.89881C23.5752 9.37313 23.8668 9.84922 24.0855 10.4105C24.2952 10.9531 24.4392 11.5732 24.4819 12.4816C24.5228 13.3918 24.5335 13.6827 24.5335 16.0002C24.5335 18.3178 24.5228 18.6079 24.4819 19.5181C24.4392 20.4262 24.2952 21.0465 24.0855 21.5893C23.8668 22.1503 23.5752 22.6264 23.1006 23.1007C22.6264 23.5754 22.151 23.8677 21.59 24.0856C21.047 24.2967 20.4262 24.4405 19.5178 24.4821C18.6075 24.5235 18.3176 24.5336 15.9999 24.5336C13.6825 24.5336 13.3918 24.5235 12.4816 24.4821C11.5733 24.4405 10.9531 24.2967 10.4101 24.0856C9.84922 23.8677 9.37313 23.5754 8.89899 23.1007C8.4245 22.6264 8.13294 22.1503 7.9148 21.5891C7.70395 21.0465 7.56013 20.4264 7.51835 19.5179C7.47711 18.6077 7.4668 18.3178 7.4668 16.0002C7.4668 13.6827 7.47746 13.3917 7.51818 12.4814C7.55906 11.5733 7.70307 10.9531 7.91462 10.4103C8.13329 9.84922 8.42485 9.37313 8.89952 8.89881C9.37384 8.42432 9.84993 8.13276 10.4112 7.9148C10.9538 7.70378 11.5739 7.55995 12.4823 7.51835Z" fill="#7D7D7D"/>
<path fill-rule="evenodd" clip-rule="evenodd" d="M15.235 9.00457C15.3836 9.00434 15.5435 9.00441 15.7161 9.00449L16.0005 9.00457C18.2789 9.00457 18.549 9.01275 19.4487 9.05364C20.2807 9.09168 20.7323 9.23071 21.0331 9.34751C21.4313 9.50218 21.7152 9.68707 22.0137 9.98574C22.3124 10.2845 22.4973 10.5689 22.6523 10.9671C22.7691 11.2676 22.9083 11.7191 22.9462 12.5511C22.9871 13.4507 22.9959 13.7209 22.9959 15.9983C22.9959 18.2757 22.9871 18.5459 22.9462 19.4454C22.9081 20.2775 22.7691 20.729 22.6523 21.0295C22.4976 21.4277 22.3124 21.7112 22.0137 22.0097C21.715 22.3084 21.4315 22.4933 21.0331 22.648C20.7326 22.7653 20.2807 22.904 19.4487 22.942C18.5491 22.9829 18.2789 22.9918 16.0005 22.9918C13.7219 22.9918 13.4519 22.9829 12.5523 22.942C11.7203 22.9036 11.2687 22.7646 10.9677 22.6478C10.5695 22.4931 10.2851 22.3082 9.9864 22.0096C9.68773 21.7109 9.50284 21.4272 9.34782 21.0287C9.23102 20.7283 9.09182 20.2767 9.05395 19.4447C9.01306 18.5452 9.00488 18.2749 9.00488 15.9962C9.00488 13.7174 9.01306 13.4486 9.05395 12.549C9.09199 11.717 9.23102 11.2654 9.34782 10.9646C9.50249 10.5664 9.68773 10.282 9.9864 9.98325C10.2851 9.68458 10.5695 9.49969 10.9677 9.34466C11.2685 9.22733 11.7203 9.08866 12.5523 9.05044C13.3395 9.01488 13.6446 9.00422 15.235 9.00244V9.00457ZM20.5557 10.4215C19.9903 10.4215 19.5316 10.8797 19.5316 11.4452C19.5316 12.0105 19.9903 12.4692 20.5557 12.4692C21.121 12.4692 21.5797 12.0105 21.5797 11.4452C21.5797 10.8799 21.121 10.4212 20.5557 10.4212V10.4215ZM11.6182 16.0004C11.6182 13.5803 13.5803 11.6182 16.0003 11.6181C18.4204 11.6181 20.3821 13.5803 20.3821 16.0004C20.3821 18.4205 18.4206 20.3818 16.0005 20.3818C13.5804 20.3818 11.6182 18.4205 11.6182 16.0004Z" fill="#7D7D7D"/>
<path fill-rule="evenodd" clip-rule="evenodd" d="M16.0007 13.1558C17.5716 13.1558 18.8452 14.4292 18.8452 16.0003C18.8452 17.5711 17.5716 18.8448 16.0007 18.8448C14.4297 18.8448 13.1562 17.5711 13.1562 16.0003C13.1562 14.4292 14.4297 13.1558 16.0007 13.1558Z" fill="#7D7D7D"/>
</svg>
