<svg width="105" height="105" viewBox="0 0 105 105" fill="none" xmlns="http://www.w3.org/2000/svg">
<path d="M102.757 48.7684L96.9462 36.7919C96.706 36.297 96.706 35.7193 96.9462 35.2243L101.848 25.1215C102.427 23.9292 101.558 22.5422 100.233 22.5422H32.4934V103.513H100.17C101.495 103.513 102.364 102.126 101.785 100.934L96.9462 90.9631C96.706 90.468 96.706 89.8903 96.9462 89.3952L102.757 77.4209C102.998 76.9259 102.998 76.3482 102.757 75.8531L96.9462 63.8782C96.706 63.3831 96.706 62.8054 96.9462 62.3104L102.757 50.3359C102.998 49.8412 102.998 49.2633 102.757 48.7684Z" fill="#88BBE6"/>
<path d="M96.4526 64.336C96.2124 63.8409 96.2124 63.2632 96.4526 62.7681L102.264 50.7936C102.504 50.2986 102.504 49.7209 102.264 49.226L96.4526 37.2496C96.2124 36.7548 96.2124 36.1771 96.4526 35.682L101.355 25.5793C101.933 24.3869 101.065 23 99.7396 23H90.4735C91.7989 23 92.6674 24.3867 92.0887 25.5793L87.1865 35.682C86.9464 36.1769 86.9464 36.7546 87.1865 37.2496L92.9978 49.226C93.238 49.7211 93.238 50.2988 92.9978 50.7936L87.1865 62.7681C86.9464 63.2632 86.9464 63.8409 87.1865 64.336L92.9978 76.3109C93.238 76.8059 93.238 77.3836 92.9978 77.8787L87.1865 89.853C86.9464 90.3481 86.9464 90.9258 87.1865 91.4208L91.6654 100.65H32V103.971H90.4106H99.6766C101.002 103.971 101.871 102.584 101.292 101.392L100.757 100.29L96.4528 91.4208C96.2126 90.9258 96.2126 90.3481 96.4528 89.853L102.264 77.8787C102.504 77.3836 102.504 76.8059 102.264 76.3109L96.4526 64.336Z" fill="#5A9CD3"/>
<path d="M41.0662 103.513H11.5643C6.31692 103.513 2.06299 99.2595 2.06299 94.0119V11.4811C2.06299 5.96142 6.53759 1.48682 12.0573 1.48682H41.0662C46.5859 1.48682 51.0605 5.96142 51.0605 11.4811V93.5189C51.0605 99.0386 46.5859 103.513 41.0662 103.513Z" fill="#88BBE6"/>
<path d="M41.0663 1.48682H31.7988C37.3185 1.48682 41.7931 5.96142 41.7931 11.4811V93.5189C41.7931 99.0386 37.3185 103.513 31.7988 103.513H41.0663C46.586 103.513 51.0606 99.0386 51.0606 93.5189V11.4811C51.0606 5.96142 46.586 1.48682 41.0663 1.48682Z" fill="#88BBE6"/>
<path d="M39.3175 103.513H11.5643C6.31692 103.513 2.06299 99.2592 2.06299 94.0119C2.06299 88.7646 6.31692 84.5106 11.5643 84.5106H39.3175C44.5648 84.5106 48.8187 88.7646 48.8187 94.0119C48.8187 99.2592 44.5648 103.513 39.3175 103.513Z" fill="#5A9CD3"/>
<path d="M98.283 63.2244C98.2425 63.1409 98.2425 63.0451 98.283 62.9617L104.093 50.9888C104.536 50.076 104.536 49.0291 104.093 48.1167L98.283 36.1421C98.2425 36.0587 98.2425 35.9629 98.283 35.8794L103.185 25.7781C103.682 24.7521 103.618 23.5627 103.013 22.5961C102.408 21.6296 101.365 21.0525 100.225 21.0525H85.5884C84.7632 21.0525 84.094 21.7215 84.094 22.5469C84.094 23.3723 84.763 24.0413 85.5884 24.0413H100.225C100.363 24.0413 100.44 24.118 100.48 24.1824C100.52 24.2468 100.556 24.3495 100.496 24.4734L95.5942 34.5747C95.1514 35.4873 95.1514 36.5341 95.5942 37.4467L101.405 49.4216C101.445 49.505 101.445 49.6006 101.405 49.6841L95.5946 61.6567C95.1516 62.5693 95.1516 63.6163 95.5944 64.5291L101.405 76.5023C101.445 76.5858 101.445 76.6814 101.405 76.7651L95.5946 88.7375C95.1516 89.6503 95.1516 90.6972 95.5946 91.6098L100.433 101.579C100.493 101.703 100.457 101.806 100.417 101.87C100.377 101.935 100.3 102.011 100.162 102.011H48.7875C48.7906 102.009 48.7935 102.005 48.7968 102.003C48.9338 101.878 49.0677 101.75 49.1987 101.618C49.2436 101.573 49.2863 101.526 49.3304 101.48C49.418 101.389 49.5055 101.299 49.5902 101.205C49.6413 101.149 49.6899 101.09 49.7397 101.033C49.8144 100.947 49.8892 100.861 49.9612 100.773C50.0129 100.71 50.0621 100.645 50.1126 100.581C50.1794 100.495 50.2463 100.41 50.3107 100.323C50.3609 100.255 50.4091 100.185 50.4577 100.116C50.5186 100.03 50.5795 99.9434 50.6382 99.8552C50.686 99.7834 50.7317 99.7104 50.7778 99.6376C50.8338 99.5492 50.8892 99.4608 50.9427 99.371C50.9874 99.296 51.0305 99.2199 51.0736 99.1438C51.1246 99.0536 51.1749 98.9627 51.2235 98.871C51.2647 98.7931 51.3047 98.7146 51.3443 98.6356C51.3906 98.5429 51.4359 98.4496 51.48 98.3555C51.5175 98.2753 51.5541 98.1945 51.5897 98.1131C51.6316 98.0177 51.6718 97.9219 51.7111 97.8251C51.7446 97.7429 51.7774 97.6607 51.809 97.5774C51.8463 97.4792 51.8816 97.3801 51.9162 97.2804C51.9453 97.1968 51.9743 97.1133 52.0015 97.0288C52.0343 96.9273 52.0645 96.825 52.0944 96.7222C52.119 96.6377 52.1441 96.5537 52.1666 96.4683C52.1947 96.3633 52.2197 96.2571 52.2448 96.1509C52.2646 96.0662 52.2856 95.9819 52.3036 95.8964C52.3268 95.7867 52.3467 95.6757 52.3668 95.565C52.382 95.4813 52.3984 95.3982 52.4117 95.3142C52.4301 95.1973 52.4447 95.0789 52.4595 94.9608C52.4695 94.8812 52.4814 94.8023 52.4898 94.7223C52.5038 94.5898 52.5128 94.4561 52.5222 94.3224C52.5269 94.2553 52.5339 94.1889 52.5376 94.1216C52.5483 93.9198 52.554 93.7168 52.554 93.5123V24.0411H76.293C77.1183 24.0411 77.7874 23.3721 77.7874 22.5467C77.7874 21.7213 77.1185 21.0523 76.293 21.0523H52.554V11.4872C52.554 5.1532 47.4008 0 41.0668 0H12.0622C5.72812 0 0.575117 5.1532 0.575117 11.4872V64.3051C0.575117 65.1303 1.24408 65.7993 2.06952 65.7993C2.89496 65.7993 3.56393 65.1303 3.56393 64.3051V11.4872C3.56393 6.80101 7.37633 2.9886 12.0624 2.9886H41.067C45.7532 2.9886 49.5656 6.80101 49.5656 11.4872V22.5467V90.0297C47.9683 85.9277 43.9789 83.0117 39.3187 83.0117H11.5691C8.41587 83.0117 5.5702 84.3482 3.56352 86.4821V73.7203C3.56352 72.895 2.89455 72.2259 2.06911 72.2259C1.24367 72.2259 0.574707 72.8948 0.574707 73.7203V93.513C0.574707 93.5956 0.579219 93.6772 0.580859 93.7595C0.579014 93.8417 0.574707 93.9231 0.574707 94.0058C0.574707 100.068 5.50663 105 11.5689 105H12.062H39.3183H41.0668H100.162C101.302 105 102.345 104.423 102.95 103.456C103.555 102.49 103.619 101.3 103.121 100.274L98.2827 90.3047C98.2423 90.2212 98.2423 90.1255 98.2827 90.042L104.093 78.0695C104.536 77.1567 104.536 76.1098 104.093 75.197L98.283 63.2244ZM39.3183 102.011H12.0622C7.45877 102.011 3.70112 98.3317 3.56987 93.7593C3.70092 89.459 7.23749 86.0001 11.5691 86.0001H39.3183C43.7326 86.0001 47.3239 89.5915 47.3239 94.0058C47.3239 98.4201 43.7326 102.011 39.3183 102.011Z" fill="#181818"/>
<path d="M39.3182 88.3408H11.5692C10.0172 88.3408 8.56813 88.9579 7.48942 90.0782C6.41112 91.1982 5.84982 92.67 5.90847 94.2229C6.02393 97.2775 8.55541 99.6704 11.6716 99.6704H39.3182C40.1434 99.6704 40.8126 99.0014 40.8126 98.176C40.8126 97.3505 40.1436 96.6816 39.3182 96.6816H11.6716C10.1942 96.6816 8.94855 95.5278 8.89502 94.1097C8.86734 93.3759 9.1325 92.6803 9.64233 92.151C10.1526 91.621 10.8369 91.329 11.5694 91.329H39.3184C40.0886 91.329 40.8226 91.6633 41.3326 92.2461C41.3558 92.2726 41.3909 92.3126 41.3505 92.4018C41.3009 92.5111 41.218 92.5111 41.1868 92.5111H28.3409C27.5157 92.5111 26.8465 93.1801 26.8465 94.0055C26.8465 94.8307 27.5155 95.4999 28.3409 95.4999H41.1868C42.4452 95.4999 43.5508 94.786 44.0721 93.6368C44.5878 92.5002 44.3998 91.2131 43.5815 90.2782C42.5043 89.0471 40.9502 88.3408 39.3182 88.3408Z" fill="black"/>
</svg>
