<svg width="105" height="105" viewBox="0 0 105 105" fill="none" xmlns="http://www.w3.org/2000/svg">
<g clip-path="url(#clip0)">
<path d="M56.875 17.5001L87.5 30.6251L56.875 43.7501L26.25 30.6251L56.875 17.5001Z" fill="#67A9DF"/>
<path d="M26.25 30.6251L56.875 43.7501V78.7501L26.25 65.6251V30.6251Z" fill="#64B5F6"/>
<path d="M56.875 78.7501L87.5 65.6251V30.6251L56.875 43.7501V78.7501Z" fill="#88BBE6"/>
<path d="M56.875 17.5001L26.25 30.6251L56.875 43.7501V17.5001Z" fill="#76B2E4"/>
<path d="M26.25 30.6251V65.6251L56.875 78.7501V43.7501L26.25 30.6251Z" fill="#A0C4E1"/>
<path d="M25.2875 10.8063L15.4437 0.962505C14.1618 -0.31937 12.0837 -0.31937 10.8018 0.962505L0.962462 10.8063C-1.10254 12.8625 0.354337 16.4063 3.28121 16.4063H8.74996V100.625C8.74996 103.04 10.7056 105 13.125 105C15.5443 105 17.5 103.04 17.5 100.625V16.4063H22.9687C25.8956 16.4063 27.3525 12.8625 25.2875 10.8063Z" fill="#181818"/>
<path d="M13.125 0C12.285 0 11.445 0.319375 10.8062 0.9625L0.962462 10.8063C-1.10254 12.8625 0.354337 16.4062 3.28121 16.4062H8.74996V100.625C8.74996 103.04 10.7056 105 13.125 105V0Z" fill="#181818"/>
<path d="M104.038 89.5563L94.1938 79.7126C92.1244 77.6432 88.5938 79.1176 88.5938 82.0313V87.5001H4.375C1.95563 87.5001 0 89.4601 0 91.8751C0 94.2901 1.95563 96.2501 4.375 96.2501H88.5938V101.719C88.5938 104.646 92.1463 106.089 94.1938 104.038L104.038 94.1939C105.319 92.912 105.319 90.8382 104.038 89.5563Z" fill="#181818"/>
<path d="M105 91.875H0C0 94.29 1.95563 96.25 4.375 96.25H88.5938V101.719C88.5938 103.696 90.2169 105 91.9056 105C92.7106 105 93.5331 104.703 94.1981 104.038L104.042 94.1938C104.681 93.555 105 92.715 105 91.875Z" fill="#181818"/>
</g>
<defs>
<clipPath id="clip0">
<rect width="105" height="105" fill="white"/>
</clipPath>
</defs>
</svg>
