<svg width="105" height="105" viewBox="0 0 105 105" fill="none" xmlns="http://www.w3.org/2000/svg">
<g clip-path="url(#clip0)">
<path d="M1.54834 22.9626C1.54834 22.9626 1.6962 76.2207 1.54834 81.935C1.6962 87.4024 6.17163 91.7901 11.6747 91.7901H62.4893L96.2124 58.067V22.9626H1.54834Z" fill="#88BBE6"/>
<path d="M50.9888 103.291H103.459V50.8206L50.9888 103.291ZM92.3178 92.3654H75.4756L92.3178 75.5231V92.3654Z" fill="#FFCA10"/>
<path d="M98.3218 55.9576V103.291H103.459V50.8206L98.3218 55.9576Z" fill="#FFA304"/>
<path d="M91.7235 7.4236L86.934 2.63399C85.7007 1.40065 83.7012 1.40065 82.468 2.63399L78.3242 6.77781L87.5796 16.0332L91.7232 11.8896C92.9566 10.6563 92.9566 8.65694 91.7235 7.4236Z" fill="#75AFDF"/>
<path d="M91.7234 7.42366L88.6378 4.33887C89.8711 5.57221 89.8711 7.57172 88.6378 8.80486L84.4944 12.9483L87.5796 16.0335L91.7232 11.8899C92.9565 10.6563 92.9565 8.657 91.7234 7.42366Z" fill="#5A9CD3"/>
<path d="M87.5782 16.0324L78.323 6.77722L73.3158 11.7845L82.5709 21.0396L87.5782 16.0324Z" fill="#FF6137"/>
<path d="M87.5799 16.0319L84.4954 12.9474L79.4881 17.9546L82.5727 21.0391L87.5799 16.0319Z" fill="#E04F32"/>
<path d="M34.1799 60.1776L48.4704 55.1331L39.2245 45.8873L34.1799 60.1776Z" fill="#FFC89F"/>
<path d="M45.3957 52.0586L35.8575 55.4254L34.1799 60.1777L48.4704 55.1331L45.3957 52.0586Z" fill="#F7B081"/>
<path d="M48.4846 55.1286L82.5703 21.0428L73.315 11.7875L39.2293 45.8732L48.4846 55.1286Z" fill="#FFD039"/>
<path d="M48.4848 55.1286L82.5706 21.0428L79.4889 17.9612L45.4032 52.0469L48.4848 55.1286Z" fill="#FFA304"/>
<path d="M12.121 71.6332V6.17517C6.27768 6.17517 1.54077 10.9121 1.54077 16.7554V82.2134C1.54098 76.3701 6.27788 71.6332 12.121 71.6332Z" fill="#88BBE6"/>
<path d="M28.4263 60.1776H34.1797L39.2296 45.8726L62.1393 22.9626H56.3859L33.4761 45.8726L28.4263 60.1776Z" fill="#75AFDF"/>
<path d="M91.0752 22.9626V63.204L96.2122 58.067V22.9626H91.0752Z" fill="#75AFDF"/>
<path d="M34.1799 60.1777L40.8491 57.8236L36.5342 53.5089L34.1799 60.1777Z" fill="#3C5156"/>
<path d="M92.9074 74.0994C92.3316 73.8607 91.6688 73.9926 91.2278 74.4333L74.3856 91.2756C73.9449 91.7165 73.8132 92.3793 74.0517 92.9552C74.29 93.531 74.8523 93.9065 75.4756 93.9065H92.3178C93.1691 93.9065 93.859 93.2166 93.859 92.3654V75.5231C93.8588 74.8998 93.4833 74.3379 92.9074 74.0994ZM90.7767 90.8244H79.1959L90.7765 79.2438L90.7767 90.8244Z" fill="black"/>
<path d="M104.049 49.3967C103.473 49.158 102.81 49.2898 102.369 49.7306L97.7536 54.3463V22.9629C97.7536 22.1116 97.0635 21.4217 96.2124 21.4217H84.3709L88.6694 17.1233C88.67 17.1227 88.6706 17.1218 88.6712 17.1212L92.813 12.9795C93.7004 12.0921 94.1891 10.9117 94.1891 9.65658C94.1891 8.4015 93.7004 7.22148 92.813 6.33369L88.0236 1.54429C87.1362 0.656915 85.9558 0.168213 84.7007 0.168213C83.4456 0.168213 82.2654 0.656915 81.3778 1.54429L77.234 5.68811L72.2268 10.6953L61.5006 21.4215H13.6623V6.17496C13.6623 5.32368 12.9722 4.6338 12.1212 4.6338C5.43766 4.63421 0 10.0715 0 16.7554V82.2136C0 82.3274 0.013125 82.4381 0.036504 82.5448C0.249376 85.3808 1.47636 88.0159 3.52694 90.0162C5.71882 92.1539 8.61227 93.3313 11.6745 93.3313H58.7683L49.8989 102.201C49.4582 102.642 49.3263 103.304 49.5648 103.88C49.8033 104.456 50.3654 104.832 50.9887 104.832H103.459C104.31 104.832 105 104.142 105 103.291V50.8206C105 50.1973 104.625 49.6352 104.049 49.3967ZM78.324 8.95767L85.4002 16.0337L82.5724 18.8615L75.4966 11.7855L78.324 8.95767ZM83.5578 3.72407C84.1878 3.09366 85.2142 3.09366 85.8442 3.72407L90.6338 8.51368C91.2643 9.14388 91.2643 10.1699 90.6338 10.8003L87.58 13.8543L80.5036 6.7781L83.5578 3.72407ZM54.7092 101.75L63.576 92.8828C63.577 92.8818 63.578 92.8809 63.5791 92.8801L67.5205 88.9385L70.2761 86.1829C70.878 85.5808 70.878 84.6052 70.2761 84.0033C70.207 83.9342 70.1328 83.8743 70.055 83.821C69.455 83.41 68.6293 83.4705 68.0963 84.0033L61.8505 90.2492H11.6747C7.00077 90.2492 3.23778 86.6 3.08971 81.9342C3.09853 81.6414 3.1213 81.351 3.1578 81.0639C3.158 81.0623 3.15821 81.0606 3.15841 81.059C3.17564 80.9226 3.19635 80.7868 3.21994 80.6519C3.2226 80.6365 3.22548 80.6211 3.22814 80.6058C3.24967 80.4854 3.27387 80.3656 3.30033 80.2463C3.30771 80.213 3.3155 80.1798 3.3233 80.1468C3.34668 80.0459 3.3719 79.9456 3.39897 79.8457C3.41374 79.7918 3.42912 79.7381 3.44491 79.6841C3.46747 79.6058 3.49085 79.5279 3.51566 79.4503C3.54048 79.373 3.56673 79.2965 3.5938 79.22C3.61246 79.1667 3.63092 79.113 3.65101 79.0601C3.68854 78.9592 3.72833 78.8593 3.76934 78.7603C3.78103 78.7318 3.79252 78.7028 3.80462 78.6743C3.85732 78.5513 3.91208 78.4297 3.96991 78.3095C3.97237 78.3044 3.97463 78.2992 3.97709 78.2941C5.18233 75.7995 7.50095 73.9397 10.2833 73.3626C10.291 73.3609 10.2988 73.3591 10.3066 73.3575C10.4342 73.3314 10.563 73.3091 10.6926 73.2883C10.7141 73.2849 10.7357 73.2805 10.7576 73.2773C10.8747 73.2594 10.993 73.2455 11.1114 73.2321C11.1446 73.2285 11.1776 73.2233 11.211 73.2201C11.3253 73.2086 11.4405 73.201 11.5558 73.1938C11.5923 73.1916 11.6288 73.1877 11.6653 73.1858C11.8162 73.1782 11.9684 73.1743 12.1212 73.1743C12.9722 73.1743 13.6623 72.4844 13.6623 71.6332V60.4586C13.6623 59.6074 12.9722 58.9175 12.1212 58.9175C11.2701 58.9175 10.58 59.6074 10.58 60.4586V70.189C7.97756 70.5181 5.56194 71.6789 3.65717 73.5389C3.4568 73.7346 3.2669 73.938 3.08213 74.1448V16.7554C3.08213 12.2968 6.3277 8.58135 10.58 7.84758V22.9629V54.2942V54.2944C10.58 55.1455 11.2701 55.8355 12.1212 55.8355C12.9722 55.8355 13.6623 55.1455 13.6623 54.2944V54.2942V24.5041H58.4187L49.8989 33.0238C49.297 33.626 49.297 34.6015 49.8989 35.2034C50.5008 35.8051 51.4766 35.8051 52.0783 35.2034L63.229 24.0527C63.2294 24.0523 63.2296 24.0519 63.23 24.0517L73.3168 13.9649L80.3926 21.0411L79.5625 21.8713C79.5619 21.8719 79.561 21.8725 79.5604 21.8731L48.4853 52.9487L41.4093 45.8726L47.5345 39.7473C48.1364 39.1452 48.1364 38.1697 47.5345 37.5678C46.9326 36.9661 45.9569 36.9661 45.3552 37.5678L38.1399 44.7828C38.1013 44.8214 38.0652 44.8622 38.0314 44.904C38.0201 44.918 38.0101 44.933 37.9994 44.9475C37.9777 44.9764 37.9563 45.0056 37.9365 45.0359C37.9252 45.0535 37.9149 45.0716 37.9043 45.0896C37.8872 45.1184 37.8708 45.1475 37.8559 45.1772C37.846 45.1965 37.8372 45.216 37.8282 45.2361C37.8144 45.2662 37.8017 45.297 37.79 45.3277C37.7859 45.3386 37.7806 45.3489 37.7767 45.3597L34.7741 53.8654L32.727 59.6648C32.7 59.7419 32.6805 59.8202 32.6659 59.8992H27.5406C26.6895 59.8992 25.9994 60.5891 25.9994 61.4403C25.9994 62.2916 26.6895 62.9815 27.5406 62.9815H70.2203C71.0716 62.9815 71.7615 62.2916 71.7615 61.4403C71.7615 60.5891 71.0716 59.8992 70.2203 59.8992H39.5992L48.998 56.5814C49.0058 56.5785 49.0132 56.5746 49.021 56.5718C49.0575 56.5582 49.0933 56.5431 49.1288 56.5269C49.143 56.5203 49.1571 56.5142 49.1709 56.5074C49.2078 56.4889 49.2441 56.4686 49.2798 56.4469C49.2912 56.4399 49.3031 56.4336 49.3144 56.4264C49.3515 56.4026 49.3876 56.3765 49.4231 56.3491C49.4319 56.3423 49.4412 56.3363 49.4498 56.3294C49.4926 56.2949 49.5347 56.2578 49.5745 56.218L81.2886 24.5041H94.671V57.4286L72.6259 79.4741C72.024 80.0762 72.024 81.0518 72.6259 81.6537C72.6634 81.6912 72.7026 81.7265 72.743 81.7595C73.0256 81.9898 73.3707 82.1051 73.7157 82.1051C74.0606 82.1051 74.406 81.9898 74.6884 81.7595C74.7288 81.7267 74.7679 81.6912 74.8055 81.6537L97.3022 59.157C97.3028 59.1564 97.3032 59.1558 97.3038 59.1552L101.918 54.5411V68.138H99.0745C98.2232 68.138 97.5333 68.8279 97.5333 69.6792C97.5333 70.5304 98.2232 71.2203 99.0745 71.2203H101.918V75.8645H99.0745C98.2232 75.8645 97.5333 76.5544 97.5333 77.4057C97.5333 78.257 98.2232 78.9469 99.0745 78.9469H101.918V83.5909H99.0745C98.2232 83.5909 97.5333 84.2808 97.5333 85.132C97.5333 85.9833 98.2232 86.6732 99.0745 86.6732H101.918V91.3174H99.0745C98.2232 91.3174 97.5333 92.0075 97.5333 92.8586C97.5333 93.7099 98.2232 94.3997 99.0745 94.3997H101.918V101.75L54.7092 101.75ZM41.2518 56.047L38.3105 53.1057L39.8689 48.6912L45.6663 54.4886L41.2518 56.047Z" fill="#181818"/>
</g>
<defs>
<clipPath id="clip0">
<rect width="105" height="105" fill="white"/>
</clipPath>
</defs>
</svg>
